<?xml version="1.0" encoding="utf-8"?>
<!-- Generator: Adobe Illustrator 25.0.0, SVG Export Plug-In . SVG Version: 6.00 Build 0)  -->
<svg version="1.1" id="Layer_1" xmlns="http://www.w3.org/2000/svg" xmlns:xlink="http://www.w3.org/1999/xlink" x="0px" y="0px"
	 viewBox="0 0 2389.5 2500" style="enable-background:new 0 0 2389.5 2500;" xml:space="preserve">
<style type="text/css">
	.st0{fill:#2684FF;}
	.st1{fill:url(#SVGID_1_);}
	.st2{fill:url(#SVGID_2_);}
</style>
<path class="st0" d="M2360.6,1180.9l-1063-1063l-103-103L394.4,815.1L28.5,1180.9c-38,38.2-38,100,0,138.3l731,731l435.1,434.9
	l800.1-800.2l12.5-12.4l353.4-352.9c38.3-38.1,38.6-100,0.5-138.3C2361,1181.2,2360.8,1181,2360.6,1180.9L2360.6,1180.9z
	 M1194.6,1615.2L829.4,1250l365.2-365.2l365.1,365.2L1194.6,1615.2z"/>
<linearGradient id="SVGID_1_" gradientUnits="userSpaceOnUse" x1="295.2748" y1="2008.7056" x2="249.0248" y2="2054.9456" gradientTransform="matrix(11.028 0 0 11.028 -2127.0166 -21636.7871)">
	<stop  offset="0.18" style="stop-color:#0052CC"/>
	<stop  offset="1" style="stop-color:#2684FF"/>
</linearGradient>
<path class="st1" d="M1194.6,884.8C955.5,645.7,954.3,258.4,1192,17.8L392.8,816.7l434.9,434.9L1194.6,884.8z"/>
<linearGradient id="SVGID_2_" gradientUnits="userSpaceOnUse" x1="307.5222" y1="2141.563" x2="353.6822" y2="2095.4128" gradientTransform="matrix(11.028 0 0 11.028 -2127.0166 -21636.7871)">
	<stop  offset="0.18" style="stop-color:#0052CC"/>
	<stop  offset="1" style="stop-color:#2684FF"/>
</linearGradient>
<path class="st2" d="M1560.8,1249l-366.1,366.2c240.1,240.2,240.1,629.5,0,869.7l801.4-801L1560.8,1249z"/>
</svg>
