<?xml version="1.0" encoding="utf-8"?>
<!-- Generator: Adobe Illustrator 25.0.0, SVG Export Plug-In . SVG Version: 6.00 Build 0)  -->
<svg version="1.1" id="Layer_1" xmlns="http://www.w3.org/2000/svg" xmlns:xlink="http://www.w3.org/1999/xlink" x="0px" y="0px"
	 viewBox="0 0 1713 1656.2" style="enable-background:new 0 0 1713 1656.2;" xml:space="preserve">
<style type="text/css">
	.st0{fill:#CBCBCB;}
	.st1{fill:#72C300;}
	.st2{fill:#C70000;}
	.st3{fill:#4E8701;}
	.st4{fill:#353535;}
	.st5{fill:#BFFE01;}
	.st6{fill:#FE5D5B;}
	.st7{fill:#619FFE;}
	.st8{fill:#FEFEFE;}
	.st9{fill:#0059E6;}
</style>
<path class="st0" d="M1712.8,1284.6c-44.8-0.2-89.6-0.4-134.3-0.5c0.5-11.7,10-16.8,17.6-22.9c16.6-13.1,33.6-25.8,49.1-40.3
	c4.6-4.3,9-8.7,9-15.4c-0.2-43.9,2.6-87.9-1.5-131.8c-7.2-12.7-23-19.5-24.7-36c-1.4-10.6-0.9-21.2-0.9-31.8c0-296.5,0-593,0-889.4
	c0-30.5,0-30.6-30-30.6c-493.2,0-986.5,0-1479.7,0c-31.3,0-31.3,0-31.3,31.2c0,349.4,0,698.8,0,1048.3c0,33.3,0,33.4,32.6,33.4
	c156,0,312.1,0,468.1,0c9.5,0,19-0.4,28.4,0.8c15.1,0.9,22.1,13.9,32.6,21.7c19.3,14.3,34.1,33.6,53.4,48c4.6,3.4,9.9,7.7,8.3,15.2
	c-236.4,0-472.8,0.1-709.2,0.1c0-422.9,0-845.8-0.3-1268.8C0,4.2,1.2-0.1,14.8-0.1c561.1,0.4,1122.3,0.4,1683.4,0
	c13.6,0,14.8,4.3,14.8,15.9C1712.8,438.8,1712.8,861.7,1712.8,1284.6z"/>
<path class="st1" d="M1656,1071.6c5.4,3.5,3.3,9,3.3,13.6c0.2,39.3-0.1,78.7,0.3,118c0.1,9.3-3.3,14.8-10.2,20.9
	c-23.1,20.6-49.6,37.2-70.9,59.9c-21.5,12.8-39.5,30.1-58.7,45.7c-131.5,106.4-262.7,213.1-394,319.7c-3.3,2.7-5.9,6.9-11.2,6
	c-6.7-6.4-7.5-14.9-6.9-23.2c2.9-38.3,1.1-76.7,1-115c0-5.8,4.1-8.7,8.1-11.8c91.7-72.5,182-146.6,272.7-220.3
	c83.7-68.1,165.5-138.5,251-204.5C1645.2,1077.1,1649.2,1071.9,1656,1071.6z"/>
<path class="st2" d="M709.6,1284.5c-28.4-27.9-57.1-55.5-88-80.7c-26.5-14.1-45.6-37.2-66.9-57.2c-34.5-32.2-69.4-64-103.8-96.3
	c-7.5-7.1-13.4-14.6-13.4-25.7c-0.1-42.2-0.2-84.5,0.1-126.7c0-3.3,0.6-6.6,2-9.7c9.8-6.6,15.4,1.5,21,6.7
	c22.2,21,44.1,42.4,66.5,63.3c65.5,61.2,130.9,122.4,195.6,184.4c59,56.6,119.6,111.6,178.3,168.7c3.6,3.5,7.3,6.9,11.4,9.8
	c23.9,17.1,40.8,37.8,36.1,69.7c0.7,27.9,0.5,55.8,0.2,83.6c-0.1,8,1.7,17.2-7.7,22.2c-71.7-66.1-143.3-132.2-215-198.2
	C720.6,1293.7,715,1289.2,709.6,1284.5z"/>
<path class="st3" d="M940.9,1496.8c5.9-11,2.7-22.9,2.9-34.4c0.4-26.1,0-52.3-0.1-78.4c3.4-7.9,0.5-16.2,1.7-24.3
	c8.1-6.1,11.8,1.9,15.8,5.7c43.4,41.3,88.3,80.9,130.3,123.7c6.9,7,19.5,9.7,19.3,22.8c3.8,6.6,2.9,13.9,3.1,21.1
	c1.4,40.8-2.6,81.6,0.5,122.4c-5.5,2.8-7.7-2.4-10.4-4.9C1049.6,1599.4,995.3,1548.1,940.9,1496.8z"/>
<path class="st4" d="M443.4,887c-3.6,47.7-1.8,95.4-1,143.1c0.2,14.6,16.6,21.4,26.3,30.7c40,38.4,81.2,75.5,121.7,113.5
	c10.4,9.8,23.6,16.7,31.3,29.5c-96.4,0.2-192.8,0.4-289.2,0.5c-79.1,0.1-158.3-0.2-237.4,0.3c-11.9,0.1-14.6-3.3-14.6-14.9
	c0.3-365,0.3-730,0-1095.1c0-12.2,3.9-14.4,15.1-14.4c507.7,0.3,1015.4,0.3,1523.1,0c10.3,0,14.3,1.9,14.3,13.5
	c-0.4,316.5-0.4,633.1-0.4,949.6c-6,2.4-9.2-2.3-12.7-5.5c-35.1-31.3-68.8-64.2-103.1-96.4c-9.7-9.1-19.7-17.9-30-26.2
	c-21.3-23.8-46.9-43.2-69.1-66c-5.1-5.3-12.5-9.8-10-19.3c24.9-22.1,50.8-42.9,77.3-63.1c11.1-8.5,16.7-18.1,16.3-32.4
	c-1.3-41.6,1.5-83.2-1.6-124.7c-37.3-38.3-77-74-116-110.4c-11.4-10.6-23-21.1-33.7-32.4c-8.4-8.8-15-10.5-25.3-1.9
	c-62.8,51.7-126.4,102.3-189.2,153.9c-50.4,41.3-101.7,81.4-151.2,123.8c-3.9,3.3-7.8,6.4-13.5,5c-22.5-17.3-42-38.1-62.5-57.6
	c-27.9-26.4-57-51.5-83.7-79.2c-17.4-18-19.5-18-38.7-2.2C685.6,691,584.1,771.8,484.1,854.5C470.6,865.7,457.2,876.7,443.4,887z"/>
<path class="st5" d="M1490,913.5c42,38.8,83.9,77.6,126,116.3c5.2,4.8,9.3,11.1,16.4,13.7c5.7,11.2,18.9,16,23.6,28.1
	c-24.8,20.4-49.7,40.7-74.5,61.1c-62,51-123.9,102.3-186.1,153.1c-61.4,50.1-123.2,99.8-184.8,149.7c-27.1,22-54.1,44.2-81.4,66
	c-5.5,4.4-10.4,10.2-18.3,10.6c-54.3-51.1-108.5-102.2-162.8-153.2c-4.2-10,4.7-13.4,9.9-17.4c36-28.1,70.4-58.1,106.2-86.4
	c15.3-12.1,30.4-24.4,45.8-36.3c8.9-6.9,8.7-12.8,1-20.3c-30.4-29.4-61.1-58.5-92.3-87c-18.1-16.5-34.2-35.1-53.4-50.4
	c-3.1-2.5-4.6-6.3-4.6-10.4c0.5-9.1,8-13.1,13.9-17.8c50.8-40.7,101.1-81.9,151.8-122.7c14.5-11.7,16.6-11.4,29.4,0.7
	c42.4,40.1,85.2,79.8,127.5,120.1c30.1,28.8,26.3,24.1,52.4,2.6c46.4-38,93.9-74.9,139.6-113.7
	C1479.5,916.1,1483.9,912.7,1490,913.5z"/>
<path class="st6" d="M962.6,1050.4c16.6,20.2,36.4,37.1,55.2,55c33,31.5,66.4,62.5,99.7,93.5c8.1,7.6,7.6,12.6-1.4,19.8
	c-52.5,41.8-104.6,84.3-156.7,126.6c-4.6,3.7-10.6,6.4-11.5,13.5c-4.9,7.8,1.3,17.6-4.3,25.3c6.7-26-11.5-39.4-27.3-54.2
	c-54.8-51.5-109.4-103.2-164.1-154.7c-99.4-93.5-198.8-186.9-298.2-280.3c-3.2-3-7.2-5.2-10.8-7.8c-0.1-7.4,6.3-10.1,10.8-13.8
	c111.7-90.9,223.7-181.5,335.2-272.7c11.2-9.2,18.2-11.1,29.7,0c50.3,48.8,101.6,96.6,152.6,144.8c-1.1,9.9-8.8,14.9-15.5,20.4
	c-47,38.2-94.8,75.5-141.3,114.4c-15.3,12.8-15.7,16.9-0.7,29.5c26.8,22.6,51.6,47.4,77,71.4c20.2,19.1,41.7,36.8,61.3,56.6
	C956.3,1041.7,961.2,1044.5,962.6,1050.4z"/>
<path class="st7" d="M962.6,1050.4c-21.2-13.7-37.6-33-56.3-49.6c-33.7-29.9-66-61.3-99-92c-15.2-14.2-15.3-15.6,1.2-28.9
	c47-38.2,94.1-76.1,141-114.4c7.7-6.3,14.7-13.4,22-20.2c30.4-20.5,57.3-45.4,85.8-68.3c90.4-73,180.5-146.5,270.5-219.9
	c5.2-4.3,9.4-7.2,15.6-1.3c53.1,50.6,106.4,101.1,159.7,151.6c-2,12.5-13.2,17.2-21.4,23.9c-46.4,37.9-93.5,74.9-139.1,113.7
	c-13.7,11.6-13.6,12.7,1.1,24.4c20.8,16.6,37.1,38.2,58.7,54.1c3.3,2.4,4.4,6.3,5.7,10c27.3,26.6,54.6,53.3,81.9,79.9
	c-55.6,45.2-111.4,90.2-166.6,135.9c-10.2,8.5-16.6,8.8-26.5-0.6c-47.1-44.9-95-88.9-142.3-133.5c-9.1-8.6-15.2-11.8-27.1-1.9
	c-51.5,43.2-104.1,84.9-156.3,127.2C967.8,1043.3,963.9,1045.7,962.6,1050.4z"/>
<path class="st8" d="M214.4,509.9c0-25.9,0.6-49.2-0.3-72.5c-0.4-9.9,6-12,12.4-15.1c39.9-19.5,79.7-39,121.9-59.5
	c-35.8-17.8-69.1-36.6-104.2-51.1c-24.1-10-28.9-23.3-30.3-49.5c-0.8-16.3,0.4-30,0.4-47.5c15.1,7.8,28.6,14.8,42.2,21.9
	c53.1,27.8,106.1,55.8,159.6,83.1c9.2,4.7,11.7,9.7,12.5,20.1c1.6,18.9,0.4,37.2-2.5,54.2c-2.6,15.1-29.2,16.6-46,27.7
	C325.9,450.9,271.5,479.6,214.4,509.9z"/>
<path class="st9" d="M1408.2,833.6c-27.1-20.5-48.8-46.9-75.2-68c-10.3-8.2-6.7-12.8,2.1-19.9c56.4-45.7,112.2-92,168.2-138.1
	c4.8,32.7-0.7,65.6,2.5,98.1c3.5,34.5-3.9,60.7-36.2,79.5C1447.2,798.2,1428.5,817.3,1408.2,833.6z"/>
<path class="st8" d="M534.7,535.4c-14.5,0-28.9-0.3-43.4,0.1c-7.2,0.2-9.2-2-9.6-9.3c-2.7-44.4-2.9-44.3,41.2-44.3
	c18.9,0,37.8,0.3,56.7-0.1c7.1-0.2,9.2,2,9.6,9.3c2.7,44.4,2.9,44.3-41.2,44.3C543.6,535.4,539.2,535.4,534.7,535.4z"/>
</svg>
