<?xml version="1.0" encoding="utf-8"?>
<svg xmlns="http://www.w3.org/2000/svg" xmlns:xlink="http://www.w3.org/1999/xlink" style="margin: auto; background: rgb(255, 255, 255); display: block; shape-rendering: auto;" width="200px" height="200px" viewBox="0 0 100 100" preserveAspectRatio="xMidYMid">
<g transform="rotate(0 50 50)">
  <rect x="49" y="32.5" rx="1" ry="2.87" width="2" height="7" fill="#1f1f1f">
    <animate attributeName="opacity" values="1;0" keyTimes="0;1" dur="1.3333333333333333s" begin="-1.2380952380952381s" repeatCount="indefinite"></animate>
  </rect>
</g><g transform="rotate(25.714285714285715 50 50)">
  <rect x="49" y="32.5" rx="1" ry="2.87" width="2" height="7" fill="#1f1f1f">
    <animate attributeName="opacity" values="1;0" keyTimes="0;1" dur="1.3333333333333333s" begin="-1.1428571428571428s" repeatCount="indefinite"></animate>
  </rect>
</g><g transform="rotate(51.42857142857143 50 50)">
  <rect x="49" y="32.5" rx="1" ry="2.87" width="2" height="7" fill="#1f1f1f">
    <animate attributeName="opacity" values="1;0" keyTimes="0;1" dur="1.3333333333333333s" begin="-1.0476190476190477s" repeatCount="indefinite"></animate>
  </rect>
</g><g transform="rotate(77.14285714285714 50 50)">
  <rect x="49" y="32.5" rx="1" ry="2.87" width="2" height="7" fill="#1f1f1f">
    <animate attributeName="opacity" values="1;0" keyTimes="0;1" dur="1.3333333333333333s" begin="-0.9523809523809523s" repeatCount="indefinite"></animate>
  </rect>
</g><g transform="rotate(102.85714285714286 50 50)">
  <rect x="49" y="32.5" rx="1" ry="2.87" width="2" height="7" fill="#1f1f1f">
    <animate attributeName="opacity" values="1;0" keyTimes="0;1" dur="1.3333333333333333s" begin="-0.8571428571428571s" repeatCount="indefinite"></animate>
  </rect>
</g><g transform="rotate(128.57142857142858 50 50)">
  <rect x="49" y="32.5" rx="1" ry="2.87" width="2" height="7" fill="#1f1f1f">
    <animate attributeName="opacity" values="1;0" keyTimes="0;1" dur="1.3333333333333333s" begin="-0.7619047619047619s" repeatCount="indefinite"></animate>
  </rect>
</g><g transform="rotate(154.28571428571428 50 50)">
  <rect x="49" y="32.5" rx="1" ry="2.87" width="2" height="7" fill="#1f1f1f">
    <animate attributeName="opacity" values="1;0" keyTimes="0;1" dur="1.3333333333333333s" begin="-0.6666666666666666s" repeatCount="indefinite"></animate>
  </rect>
</g><g transform="rotate(180 50 50)">
  <rect x="49" y="32.5" rx="1" ry="2.87" width="2" height="7" fill="#1f1f1f">
    <animate attributeName="opacity" values="1;0" keyTimes="0;1" dur="1.3333333333333333s" begin="-0.5714285714285714s" repeatCount="indefinite"></animate>
  </rect>
</g><g transform="rotate(205.71428571428572 50 50)">
  <rect x="49" y="32.5" rx="1" ry="2.87" width="2" height="7" fill="#1f1f1f">
    <animate attributeName="opacity" values="1;0" keyTimes="0;1" dur="1.3333333333333333s" begin="-0.47619047619047616s" repeatCount="indefinite"></animate>
  </rect>
</g><g transform="rotate(231.42857142857142 50 50)">
  <rect x="49" y="32.5" rx="1" ry="2.87" width="2" height="7" fill="#1f1f1f">
    <animate attributeName="opacity" values="1;0" keyTimes="0;1" dur="1.3333333333333333s" begin="-0.38095238095238093s" repeatCount="indefinite"></animate>
  </rect>
</g><g transform="rotate(257.14285714285717 50 50)">
  <rect x="49" y="32.5" rx="1" ry="2.87" width="2" height="7" fill="#1f1f1f">
    <animate attributeName="opacity" values="1;0" keyTimes="0;1" dur="1.3333333333333333s" begin="-0.2857142857142857s" repeatCount="indefinite"></animate>
  </rect>
</g><g transform="rotate(282.85714285714283 50 50)">
  <rect x="49" y="32.5" rx="1" ry="2.87" width="2" height="7" fill="#1f1f1f">
    <animate attributeName="opacity" values="1;0" keyTimes="0;1" dur="1.3333333333333333s" begin="-0.19047619047619047s" repeatCount="indefinite"></animate>
  </rect>
</g><g transform="rotate(308.57142857142856 50 50)">
  <rect x="49" y="32.5" rx="1" ry="2.87" width="2" height="7" fill="#1f1f1f">
    <animate attributeName="opacity" values="1;0" keyTimes="0;1" dur="1.3333333333333333s" begin="-0.09523809523809523s" repeatCount="indefinite"></animate>
  </rect>
</g><g transform="rotate(334.2857142857143 50 50)">
  <rect x="49" y="32.5" rx="1" ry="2.87" width="2" height="7" fill="#1f1f1f">
    <animate attributeName="opacity" values="1;0" keyTimes="0;1" dur="1.3333333333333333s" begin="0s" repeatCount="indefinite"></animate>
  </rect>
</g>
<!-- [ldio] generated by https://loading.io/ --></svg>